<svg enable-background="new 0 0 5000 3500" viewBox="0 0 5000 3500" xmlns="http://www.w3.org/2000/svg"><path d="m4256.7 3193.8-1178.9 2.1c-144.5 1-298 1.5-457.2 1.5-387.5 0-741.7-3.2-1012.6-8.5h-1090.5c0-192.6 212-108 267.9-74 65 39.5-18.7-170.8 114-170.8 113.6 0 178.6 57.1 178.6 57.1s3.1-111 110.8-112.6 176.1 93.3 261.1 171.4c35.1 32.2 77.3 57.8 117.2 77.3 275.7-5.8 646.1-9.4 1053.5-9.4 193 0 377.6.8 547.9 2.3 302.6 0 579.7-159.1 658.3-199 194.2-98.8 102.2 136.7 102.2 136.7s149.7-63 255-62.5c148.7.6 72.7 188.4 72.7 188.4z" fill="#d0f0e4"/><g fill="none"><path d="m3645 3188s29.8-268.2-164.2-354.5c0 0-28.6 291.8 68.2 272.7 36.3-7.2-41.6-78-168.6-81 0 0 97.3 163.5 215.5 165.8" stroke="#ffcf2d" stroke-miterlimit="10" stroke-width="6"/><path d="m3596.3 3190.6s11.2-122.7 130.8-160.9c108-34.4-81 157.9-81 157.9" stroke="#ffcf2d" stroke-miterlimit="10" stroke-width="6"/><path d="m910.7 3179.4s-171.5-117.5-219.8-309.2c0 0 151.8 45.4 216.2 142 0 0 26.4-219.9 90.2-293.9 0 0 34.5 49.6 38.8 233.4 0 0 78.2-133.2 136.4-176.2 0 0-8 173.3-49.6 261.8 0 0 60.1-46.8 100.7-.9s-39 113.1-39 113.1" stroke="#fe5244" stroke-miterlimit="10" stroke-width="5"/><path d="m997.4 2724.8s1.7 400.6-16.5 452.5" stroke="#fe5244" stroke-miterlimit="10" stroke-width="5"/><path d="m1166.9 2785.6s-119.6 307.3-186 391.7" stroke="#fe5244" stroke-miterlimit="10" stroke-width="5"/><path d="m1121.1 3038.7c-4.4 16.1-34.7 60.5-40.7 41.4-5.9-19.1 48.6-50 62.3-55.1" stroke="#fe5244" stroke-miterlimit="10" stroke-width="5"/><path d="m907.2 3012.3c8.1 15.6 35.5 59.4 7.8 58.3-18.1-.7-2.9-92.6-2.9-92.6" stroke="#fe5244" stroke-miterlimit="10" stroke-width="5"/></g><path d="m3168.1 2850.1c-68 33.3-61.6 97.2-62.2 140.1-.7 45.7-87.9 69.6-87.9 69.6 23.2-73.1 6.7-148.4 6.7-148.4z" fill="#a0505a"/><path d="m3240.2 3018.4-15.5 8.4-32.5-74.3c-1.7-3.9-5.5-6.2-9.4-6.2-1.3 0-2.7.3-4 .8-3.3 1.4-5.7 4.5-6.1 8.1l-14.3 107.7-188.1 102.4c-5.6-13.4 29.3-47 47.8-105.5 0 0 87.3-23.9 87.9-69.6.6-42.9-5.7-106.9 62.2-140.1l14.3-6.1c78 35.9 57.7 174.4 57.7 174.4z" fill="#ffcf2d"/><path d="m3182.4 2316.4v527.6l-155.6 67.5-116.6-529.7c52.2 2 139.2-9 272.2-65.4z" fill="#fff" stroke="#9a3b82" stroke-miterlimit="10" stroke-width="5"/><path d="m3068 2362.8 30.7 517.3" fill="none" stroke="#9a3b82" stroke-miterlimit="10" stroke-width="5"/><path d="m3182.4 2316.4v138.1l-264.8-38.3-7.4-34.4c52.2 2 139.2-9 272.2-65.4z" fill="#9a3b82"/><path d="m3966.6 1958.4-100.6 21.2c-3.4.7-6.8-.4-9.2-2.9-1.7-1.9-2.6-4.2-2.6-6.6 0-2.6 1-5.2 3.1-7.1l56-52.5-12.4-11.1s-130 25.5-137.4 106.6l9.9 10.8c51.1 50.2 106.2 24.3 144.7 11.3 36.8-12.4 80.7 44.7 89.4 56.5h.4c58-1.9 99.1 18.7 109.2 9.4z" fill="#ffcf2d"/><path d="m3773.5 2016.8c51.1 50.2 106.2 24.3 144.7 11.3 41-13.8 89.9 56.5 89.9 56.5-72.6 2.3-134.5 40.8-134.5 40.8z" fill="#a0505a"/><path d="m3152.3 2320.9s25.3 170.9 219.4 167.7 499.8-364.2 499.8-364.2l-107.5-117.8z" fill="#fff" stroke="#9a3b82" stroke-miterlimit="10" stroke-width="5"/><path d="m3264.2 2274.5c6.4 45 36.6 87.4 128.7 85.9 136.8-2.2 330.1-181.7 432.3-287.5" fill="none" stroke="#9a3b82" stroke-miterlimit="10" stroke-width="5"/><path d="m3999.5 1658c-17.7-6.7-59.8 16.3-91.5 56.3-34.1 42.9-47.9 88.5-32.9 100.4l-480.3-255.4c-23.6-12.5-50.8 8.9-44.1 34.7l145.4 550.8c-492.5 319.6-650.4 223.8-650.4 223.8v-1810c0 .1 0 .1.1.2 4.2 10.7 49.3 3.2 100.8-16.9 47.4-18.4 83.6-41 85.9-52.8l.1-.1v570.3c0 35.8 19.3 68.7 50.5 86.2z" fill="#fe5244"/><path d="m3999.5 1658c-17.7-6.7-59.8 16.3-91.5 56.3-34.1 42.9-47.9 88.5-32.9 100.4l-480.3-255.4c-23.6-12.5-50.8 8.9-44.1 34.7l145.4 553c-125.2 81.3-228.8 133.5-313.7 169.5-133 56.3-220 67.4-272.2 65.4-45.5-1.7-64.5-13.3-64.5-13.3v-1810c0 .1 0 .1.1.2 4.2 10.7 49.3 3.2 100.8-16.9 47.4-18.4 83.6-41 85.9-52.8l.1-.1v570.3c0 35.8 19.3 68.7 50.5 86.2z" fill="#fe5244"/><path d="m3310.6 1514.9 564.5 306.2" fill="none" stroke="#fff" stroke-linecap="round" stroke-miterlimit="10" stroke-width="6"/><path d="m3096.5 1152.9-63.3 367.9 323.1-222.5z" fill="#ffcf2d"/><path d="m3096.5 1152.9-63.3 367.9 323.1-222.5" fill="none" stroke="#fff" stroke-linecap="round" stroke-miterlimit="10" stroke-width="6"/><path d="m3093.9 442.8-417.1 85.5c-15.4 3.2-31.3-10.5-35.4-30.6s5.1-38.9 20.5-42.1l417.1-85.5z" fill="#fff" stroke="#3fb1b5" stroke-linecap="round" stroke-miterlimit="10" stroke-width="5"/><ellipse cx="3086.4" cy="406.4" fill="#fff" rx="28.5" ry="37.1" stroke="#3fb1b5" stroke-linecap="round" stroke-miterlimit="10" stroke-width="5" transform="matrix(.9796 -.2008 .2008 .9796 -18.7409 628.1555)"/><path d="m2855.9 479.2s-134.9 151.6-120.2 185c19.2 19.1 34.8 27.5 32.5 34.6-2.5 7.7-34.8 54.2-34.8 54.2l-3.2-34.5-30.9 10.2s32.6-47.6 34.7-62.2c-13.4-10.2-40.7-31.4-39.8-46.2 1-15.7 48.8-71.5 83.5-110l-52.3 17.3-10.3-48.3 94.1-17.3z" fill="#fe5244"/><circle cx="2837.6" cy="457.4" fill="#fff" r="28.4" stroke="#fe5244" stroke-miterlimit="10" stroke-width="5"/><path d="m3032.5 489.1c-2.3 11.8-38.5 34.4-85.9 52.8-51.5 20-96.6 27.6-100.8 16.9 0-.1 0-.1-.1-.2-3.6-10.8 34.6-35.5 85.8-55.4 51.5-20 96.6-27.6 100.8-16.9.3.8.4 1.7.2 2.8z" fill="#9a3b82"/><path d="m2997.8 405.1-5.5 79.4-2.6 38c-12.5 6.6-27.2 13.2-43.1 19.4-27 10.5-52.2 17.5-70.7 20.4v-72.6l75.9-15.6s4.2-27.1 12.2-49.8c7.9-22.8 33.8-19.2 33.8-19.2z" fill="#a0505a"/><path d="m2953.9 470.8c-1.1 4.5-34.1 15-34.1 39" fill="none" stroke="#73325a" stroke-linecap="round" stroke-miterlimit="10" stroke-width="4"/><path d="m2992.3 484.5-2.6 38c-12.5 6.6-27.2 13.2-43.1 19.4-27 10.5-52.2 17.5-70.7 20.4v-32.8c14.8-8.7 34.1-17.9 55.6-26.3 22.4-8.8 43.6-15.2 60.8-18.7z" fill="#73325a"/><path d="m2942.6 444.8-84.7 19.4c-4.5 1-8.7-2.6-8.7-7.6v-51.4c0-6.9 4.2-12.9 10.3-14.9l83.7-27.3c5.3-1.7 10.6 2.5 10.6 8.4v58.6c-.1 7.1-4.7 13.3-11.2 14.8z" fill="#a0505a"/><path d="m2879.2 456.2c-4.6 1-9-2.5-9-7.3v-49.3c0-6.6 4.3-12.4 10.6-14.3" fill="none" stroke="#73325a" stroke-linecap="round" stroke-miterlimit="10" stroke-width="4"/><path d="m2903.6 450.9c-4.6 1-9-2.6-9-7.5v-50.8c0-6.8 4.3-12.8 10.6-14.7" fill="none" stroke="#73325a" stroke-linecap="round" stroke-miterlimit="10" stroke-width="4"/><path d="m2930.9 445.1c-4.6 1-9-2.7-9-7.7v-52.6c0-7 4.3-13.2 10.6-15.2" fill="none" stroke="#73325a" stroke-linecap="round" stroke-miterlimit="10" stroke-width="4"/><path d="m3962.3 1757.4c-34.1 43-72.3 69.1-87.3 57.2s-1.2-57.4 32.9-100.4c31.8-40 73.8-63 91.5-56.3l3.5 2c15.1 12-6.5 54.6-40.6 97.5z" fill="#9a3b82"/><path d="m4116.6 1829.7-22.7 12c-9 4.8-20.2 1.4-25-7.6l-23.9-44.4-36.2-12.4c4 1.5 19.6 9.5 14.7 38.6l-85-31.7-29.2-10.9-27.7-17.7c6.5-13.2 15.4-27.4 26.5-41.3 9.3-11.7 19.4-21.9 29.5-30.3l28.9 20.2 29.6 3.2 48.1 5.1c7.7.8 15.1 3.4 21.6 7.5l38.4 27.3c5.6 4 9.3 10 10.2 16.8l7.8 54.6c.7 4.5-1.6 8.9-5.6 11z" fill="#a0505a"/><path d="m4060.7 1740.8 33.3 23.7c4.8 3.4 8 8.7 8.9 14.6l6.8 44.1c.5 3.9-1.4 7.7-4.9 9.5" fill="none" stroke="#73325a" stroke-linecap="round" stroke-miterlimit="10" stroke-width="4"/><path d="m4040.1 1748.7 33.3 23.7c4.8 3.4 8 8.7 8.9 14.6l6.8 44.1c.5 3.9-1.4 7.7-4.9 9.5" fill="none" stroke="#73325a" stroke-linecap="round" stroke-miterlimit="10" stroke-width="4"/><path d="m4008.8 1777.2-24.2-8.2" fill="none" stroke="#73325a" stroke-linecap="round" stroke-miterlimit="10" stroke-width="4"/><path d="m3996.1 1707.4c-8.1 15.3-19.9 32.7-33.7 50.1-7.9 9.9-15.9 18.9-23.9 26.7l-29.2-10.9-27.7-17.7c6.5-13.2 15.4-27.4 26.5-41.3 9.3-11.7 19.4-21.9 29.5-30.3l28.9 20.2z" fill="#73325a"/><path d="m3122.9 885.9 213.9 94.9 76.3 223.2-155-110.8-72.3-88.3z" fill="#fe5244"/><path d="m3185.8 1004.9s70 12 98.2 90l14.9-15s-27.1-75.9-98.7-95.4z" fill="#9a3b82"/><path d="m3603 1101.8c-24-13.6-46.2-21.1-53.3-18.4.5-1.2.8-2.6.7-4-.4-4.4-4-7.7-8.3-7.7-.2 0-.4 0-.7 0-4.6.4-8 4.4-7.7 9 0 .3.1.6.1.8l-25.4 16.3c-5.7 3.7-12.7 3.9-18.7.6s-9.5-9.3-9.5-16.1v-36.5c0-15.9-7.9-30.6-21.2-39.4s-30-10.2-44.6-4l-48.4 21.6-18.4-53.9-215-95.3c-1.3-.6-2.9 0-3.5 1.4-.6 1.3 0 2.9 1.4 3.5l212.8 94.4 75.9 222.1c.4 1.1 1.4 1.8 2.5 1.8.3 0 .6-.1.9-.1 1.4-.5 2.1-2 1.7-3.4l-56.5-165.4 48.8-21.8c13-5.6 27.8-4.3 39.5 3.5 11.8 7.8 18.8 20.8 18.8 35v36.5c0 8.8 4.6 16.6 12.3 20.8 3.6 2 7.5 3 11.4 3 4.4 0 8.8-1.3 12.7-3.8l25.2-16.1c1.5 1.4 3.5 2.2 5.6 2.2h.7c1.8-.1 3.4-.8 4.6-1.9 0 7.1 18.2 23 43.2 37.2 5.4 3.1 10.8 5.9 15.9 8.3 3.1-2.6 5.7-5.7 7.8-9.4 2.1-3.6 3.4-7.5 4-11.5-4.8-3-9.9-6.2-15.3-9.3zm-60.7-17.6c-2.3.2-4.2-1.5-4.4-3.7s1.5-4.2 3.7-4.4 4.2 1.5 4.4 3.7-1.5 4.2-3.7 4.4z" fill="#ffcf2d"/><path d="m3171.9 1136.4-37 205.8 126.1-97.2v-128.3z" fill="#a0505a"/><path d="m3171.9 1136.4-4.6 25.8 55.8 112 37.9-29.2v-128.3z" fill="#73325a"/><path d="m3187.9 1007s-63.1-15.7-82.8 20.9 37.9 46.7 40.3 33.9c1.1-5.6-103.7-5.5-86.1 73.8 18.3 82.6 100.8 54.2 100.8 54.2l9.6-53.4z" fill="#fff" stroke="#9a3b82" stroke-miterlimit="10" stroke-width="4"/><path d="m3260 1125.4s-94.2 122.8-11.4 175c66.4 41.8 83.5-17.1 65.7-25.2-19.3-8.8-63.6 157.2 72.8 156.7 136.7-.5 94.9-171.2 26-227.8-32.9-27-142.7-102.5-142.7-102.5z" fill="#fff" stroke="#9a3b82" stroke-miterlimit="10" stroke-width="4"/><path d="m3257.2 1094.6 7.1 4.5c6.9 4.4 8.9 13.5 4.6 20.4l-1.4 2.1c-4.4 6.9-13.5 9-20.4 4.6l-7.6-4.8c-8.4 6-58.9 39.7-90.1 6.2-30.3-32.5 39.7-127.6 39.7-127.6 59.4 18.6 82.6 71.4 82.6 71.4z" fill="#a0505a"/><path d="m3169.6 1021.6s16.4 6.1 14.8 20.2-16.4 36.3-12.9 40.1 8.2 4.5 8.2 4.5" fill="none" stroke="#73325a" stroke-linecap="round" stroke-miterlimit="10" stroke-width="4"/><path d="m3165.6 1094.9s12.2 6.8 28.8 4.2" fill="none" stroke="#73325a" stroke-linecap="round" stroke-miterlimit="10" stroke-width="4"/><ellipse cx="3214.2" cy="1073.4" fill="#73325a" rx="7.2" ry="3.9" transform="matrix(.3562 -.9344 .9344 .3562 1066.3667 3694.5015)"/><ellipse cx="3168.5" cy="1052.4" fill="#73325a" rx="6" ry="3.3" transform="matrix(.3562 -.9344 .9344 .3562 1056.6555 3638.3127)"/><path d="m3252 1111.8c2.8-4.4 8.6-5.7 13-2.9" fill="none" stroke="#73325a" stroke-linecap="round" stroke-miterlimit="10" stroke-width="4"/><path d="m3215.1 1048.5s12.2 3.3 18.5 17.8" fill="none" stroke="#73325a" stroke-linecap="round" stroke-miterlimit="10" stroke-width="4"/><path d="m3233.3 1024.2s-13.3 44.1 24.8 74.2c22.4 17.7 23.7-3.6 23.7-3.6s-2.9-43.3-48.5-70.6z" fill="#fff" stroke="#9a3b82" stroke-miterlimit="10" stroke-width="4"/><path d="m2349.9 2154.3c-10.5-38.3-183.9-2.4-374.9 67.1-182.7 66.5-331.2 156.2-332.8 192.3l-100.2-730.9c-1.5-10.3-10.3-17.9-20.7-17.9-5.8 0-11 2.3-14.8 6.1s-6.1 9-6.1 14.8v624.2c-1.2-17.1-45.3-30.8-99.5-30.8s-98.2 13.7-99.5 30.8v-701.4c0-59.2 31-114 81.6-144.6l65.7-39.7 270.6-163.4 251.7-153.2v-261.5c0 11.2 46.3 20.2 100.9 20.2 54.5 0 100.9-8.9 100.9-20.2v283.5c0 62.8-30.7 122.1-79.7 161.3l-153.1 109.4c-26.1 18.6-32.4 54.8-14.2 81.2 101.5 146.9 413.4 575.6 424 669.9.1.9.1 1.9.1 2.8z" fill="#3fb1b5"/><path d="m1968 1085.3v77" fill="none" stroke="#fff" stroke-linecap="round" stroke-miterlimit="10" stroke-width="6"/><path d="m1448.9 1424.3 333.7 223.2-63.1-386.6-72.3 42.8 17 158.5-143.4-82.9z" fill="none" stroke="#fff" stroke-linecap="round" stroke-miterlimit="10" stroke-width="6"/><path d="m2339.2 2163.9c-12-33.1-171 5.1-362.1 74.6s-337.8 157.4-325.7 190.5c12 33.1 178.3-1.1 369.4-70.6s330.5-161.4 318.4-194.5z" fill="none" stroke="#3fb1b5" stroke-linecap="round" stroke-miterlimit="10" stroke-width="5"/><path d="m1904 2854.4-11 19.2-12.2 21.4c-105.5 13.2-124.1-55.8-124.1-55.8l15.9-31.6c42.6 26.2 96.6 40.1 131.4 46.8z" fill="#e57281"/><path d="m2284 2352.3c-75 129.3-344.7 507.7-344.7 507.7s-14.1-1.5-35.3-5.6c-34.8-6.8-88.8-20.6-131.5-46.8-9.9-6.1-19.1-12.8-27.4-20.3l195.5-397 49.4-104.1 27.4-57.8c3.3-1.2 6.6-2.3 9.8-3.4 1.6-.6 3.2-1.1 4.9-1.7 4.9-1.7 9.7-3.3 14.5-4.9 4-1.3 7.9-2.6 11.8-4 11.9-4 23.6-7.7 35-11.3 76.6-24.2 142.1-40.5 186.3-45.5 9.8 13.7 21 33.4 27.4 58.1 9.3 36.1 8.2 82.7-23.1 136.6z" fill="#fff" stroke="#9a3b82" stroke-miterlimit="10" stroke-width="5"/><path d="m1956.6 3149.5c-3.4 14.9-21.9 20.2-32.7 9.4l-241.7-240.9 75.6-78.9s17.5 68.9 123.1 55.8c85.3 128.8 85.1 213.1 75.7 254.6z" fill="#fff" stroke="#fe5244" stroke-miterlimit="10" stroke-width="5"/><path d="m1946.7 3164.7c-16.4 6.3-34.9 3-48.2-8.7l-126.2-110.9c-3.1-2.8-3.5-7.5-.9-10.8 2.5-3.1 2.3-7.7-.6-10.5l-10.3-10c-2.8-2.8-7.3-2.9-10.3-.3l-2.4 2c-2.9 2.5-7.1 2.5-9.9 0l-67.8-58.9c-8.8-7.6-9.1-21.2-.8-29.3l11.8-11.4 243.2 245.5c7 7 17.1 7.3 24.3 2.6z" fill="#fe5244"/><path d="m1913.8 2927.1s20.5 18.2-28.5 40.3" fill="none" stroke="#fe5244" stroke-linecap="round" stroke-miterlimit="10" stroke-width="5"/><path d="m1926.7 2949s20.5 18.2-28.5 40.3" fill="none" stroke="#fe5244" stroke-linecap="round" stroke-miterlimit="10" stroke-width="5"/><path d="m1939.6 2970.9s20.5 18.2-28.5 40.3" fill="none" stroke="#fe5244" stroke-linecap="round" stroke-miterlimit="10" stroke-width="5"/><path d="m2307.1 2215.7c-65-.1-131.6 11.2-195.8 29-5.1-18-12.3-32.3-17.9-41.6 76.6-24.2 142.1-40.5 186.3-45.5 9.9 13.8 21.1 33.5 27.4 58.1z" fill="#9a3b82"/><path d="m1629.3 2844.3-19.3 24.7-15.2 19.4c-106.3-2.1-114.8-73-114.8-73l23.1-33.1c40.1 32.2 94.3 52.2 126.2 62z" fill="#e57281"/><path d="m2113.5 2325.6c-5.8 24.7-18.2 51.3-41 78.7-93.6 112.7-416.8 447.3-416.8 447.3s-126.2-28.4-180.1-96.4l217.6-309.1 80.3-114.1c55.4-29.5 125.8-60.8 203.6-89.2 40.6-14.8 79.7-28.1 116.3-39.7 5.5 9.3 12.8 23.7 17.9 41.6 6.4 22.2 9.5 50 2.2 80.9z" fill="#fff" stroke="#9a3b82" stroke-miterlimit="10" stroke-width="5"/><path d="m1633.2 3151.2c-5.5 14.3-24.5 16.9-33.7 4.6l-204.7-273.1 86.1-67.3s7.4 70.9 113.8 73c66.1 139.7 53.8 223.1 38.5 262.8z" fill="#fff" stroke="#fe5244" stroke-miterlimit="10" stroke-width="5"/><path d="m1621.3 3164c-17.1 3.9-35-2.1-46.4-15.4l-109-127.6c-2.7-3.2-2.4-7.9.6-10.8 3-2.7 3.3-7.3.9-10.5l-8.8-11.3c-2.4-3.1-6.8-3.9-10.2-1.8l-2.6 1.7c-3.2 2-7.3 1.4-9.8-1.4l-59-67.7c-7.6-8.8-6-22.2 3.4-29l13.3-9.6 205.7 276.9c5.9 7.9 15.9 9.6 23.7 6.1z" fill="#fe5244"/><path d="m1624.9 2925.6s17.7 20.9-34 35.8" fill="none" stroke="#fe5244" stroke-linecap="round" stroke-miterlimit="10" stroke-width="5"/><path d="m1636.6 2949.1s17.7 20.9-34 35.8" fill="none" stroke="#fe5244" stroke-linecap="round" stroke-miterlimit="10" stroke-width="5"/><path d="m1646.2 2972.6s17.7 20.9-34 35.8" fill="none" stroke="#fe5244" stroke-linecap="round" stroke-miterlimit="10" stroke-width="5"/><path d="m2111.4 2244.7c-41.8 11.6-82.6 25.9-121.3 41.4-167.1 67.3-295.2 158.7-296.8 159.8l80.3-114.1c55.4-29.5 125.8-60.8 203.6-89.2 13.6-4.9 27-9.7 40.3-14.4 3.3-1.2 6.6-2.3 9.8-3.4 1.6-.6 3.2-1.1 4.9-1.7 4.9-1.7 9.7-3.3 14.5-4.9 4-1.3 7.9-2.6 11.8-4 11.9-4 23.6-7.7 35-11.3 5.5 9.6 12.7 23.9 17.9 41.8z" fill="#9a3b82"/><path d="m1498.2 2323.5c0 17.4-43.5 31.6-97.2 31.6s-97.2-14.1-97.2-31.6c0-.2 0-.5 0-.7 1.2-17.1 44.3-30.8 97.2-30.8s96 13.7 97.2 30.8z" fill="#fff" stroke="#3fb1b5" stroke-linecap="round" stroke-miterlimit="10" stroke-width="5"/><path d="m1459 2300v82.1c0 26.6-14.7 50.9-38.1 63.4l-39.9 21.2c-9.7 5.2-20.6 7.9-31.6 7.9-4.7 0-7.9-3.9-7.9-8 0-1.7.6-3.5 1.8-5l14.9-18c2.1-2.5.3-6.2-2.9-6.2h-87.7l-16 20.2c-8.5 10.7-21.5 17-35.1 17h-4.6c-5.7 0-9.2-6.1-6.4-11l1.8-3.3c-5.5 2.3-11.5 3.6-17.6 3.6h-4.6c-5.7 0-9.2-6.1-6.4-11l35.9-39.6 24.9-9.8v.1l123.7-48.6v-58.4c11.7-1.5 24.4-2.4 37.8-2.4 21.7-.1 41.7 2.1 58 5.8z" fill="#e57281"/><path d="m1236.3 2407.7-30 51.5" fill="none" stroke="#9a3b82" stroke-linecap="round" stroke-miterlimit="10" stroke-width="4"/><path d="m1350.6 2452.6 18.4-22.5c3.6-4.4.5-10.9-5.2-10.9" fill="none" stroke="#9a3b82" stroke-linecap="round" stroke-miterlimit="10" stroke-width="4"/><path d="m1459 2300v51.3c-16.3 3.7-36.3 5.9-58 5.9-13.4 0-26.1-.8-37.8-2.4v-58.4c11.7-1.5 24.4-2.4 37.8-2.4 21.6.1 41.7 2.3 58 6z" fill="#9a3b82"/><path d="m2170.7 835.5c0 11.3-44.2 20.2-98.7 20.2s-98.7-8.9-98.7-20.2 44.2-20.6 98.7-20.6 98.7 9.4 98.7 20.6z" fill="none" stroke="#3fb1b5" stroke-linecap="round" stroke-miterlimit="10" stroke-width="5"/><path d="m2041.9 852c-12.2-.8-23.3-2-32.9-3.7v-97.1c0-3.2.7-6.4 2.1-9.3l31.4-64.8c5.8-12 18-19.6 31.3-19.6h38.5l-84.2 154.9c-.4.7-.7 1.4-1 2.1-4.9 12.1 1.2 27.6 14.8 37.5z" fill="#e57281"/><path d="m2114.3 812.7 12.4-21.6v58.6c-10.2 1.3-21.7 2.4-34 2.9z" fill="#9a3b82"/><path d="m2295.7 473.6-205 377.2c-7.6 14-28.4 17.3-46.6 7.4s-26.7-29.2-19.1-43.1l205-377.2z" fill="#fff" stroke="#fe5244" stroke-miterlimit="10" stroke-width="5"/><ellipse cx="2262.8" cy="455.8" fill="#fff" rx="28.8" ry="37.4" stroke="#fe5244" stroke-miterlimit="10" stroke-width="5" transform="matrix(.4775 -.8786 .8786 .4775 781.8137 2226.3313)"/><path d="m2170.1 612 96.9-80.2-1.5 29.2 31 7.7-74 45.7c56.8-12.2 158.8-29.4 174.3.6 6.1 11.8-5.4 35.9-13.1 53.2-4.8 36.5 186.6-8.7 188.8-9.2l-29.5 27.3 29.5 16.8s-160.6 30.6-202 22.2c-23.4-4.8-4.8-36.2 11.5-59.2 5-17.7-34.8-23.5-200.3-5.5z" fill="#fe5244"/><circle cx="2171.5" cy="631.6" fill="#fff" r="28.6" stroke="#fe5244" stroke-miterlimit="10" stroke-width="5"/><path d="m2193.9 727.4-9.2 21.6-10.8 25.2-5.8 13.7-8.9 20.9c-.2.6-.5 1.1-.8 1.7 0 0 0 .1-.1.1-2.9 4.9-8.4 8-14.4 8h-70.6c-8.5 0-14.4-8.1-11.2-15.6l5.1-12 11.3-26.5 9.7-22.8 8.5-20.1c2.5-5.9 8.6-9.7 15.3-9.7h70.6c8.7-.1 14.5 8 11.3 15.5z" fill="#e57281"/><path d="m2090.7 741.6c2.9-3.3 7.2-5.2 11.8-5.2h67.4c7.1 0 12.2 6.1 11.5 12.6" fill="none" stroke="#9a3b82" stroke-linecap="round" stroke-miterlimit="10" stroke-width="4"/><path d="m2081.5 764.5c2.9-2.9 6.9-4.6 11.2-4.6h67.4c7.7 0 13.1 7.2 11.1 14.3" fill="none" stroke="#9a3b82" stroke-linecap="round" stroke-miterlimit="10" stroke-width="4"/><path d="m2070.9 790.9c2.9-2.7 6.8-4.3 10.9-4.3h67.4c8 0 13.5 7.7 10.9 15" fill="none" stroke="#9a3b82" stroke-linecap="round" stroke-miterlimit="10" stroke-width="4"/><path d="m2151 657.4v1.8c0 18.3-14.8 33.2-33.2 33.2h-34.8v-35z" fill="#e57281"/><path d="m1305.9 1439.7c-3.2 4.8-6.5 9.3-9.8 13.4-3.6-.9-7.1-2.4-10.3-4.6s-5.9-4.8-8.1-7.9c2.6-4.5 5.5-9.3 8.8-14.1 16.2-24 33.6-40.5 39-36.9s-3.4 26.1-19.6 50.1z" fill="#ffcf2d"/><path d="m1453.3 1079.4-124.9 184.4c-1.5 2.2.6 4.9 3.1 4.2l59.7-19.2c-7.3 8.7-11.8 20-11.8 32.2v58.1c0 22.7-18.1 41.2-40.7 41.8-1.4-2.6-4.2-4.4-7.5-4.4-2.3 0-4.4.9-6 2.5s-2.5 3.7-2.4 6c0 4.6 3.8 8.4 8.5 8.4 4.2 0 7.7-3.2 8.3-7.2 25-1.1 45.1-21.8 45.1-47.1v-58.1c0-14.6 7.2-27.9 18-35.9l120.1-38.6 154.2-127.1zm-119.8 307.6c-.6.6-1.4.9-2.2.9s-1.6-.3-2.2-.9-.9-1.4-.9-2.2.3-1.6.9-2.2 1.4-.9 2.2-.9c.9 0 1.6.3 2.2.9s.9 1.3.9 2.2c.1.9-.3 1.6-.9 2.2z" fill="#3fb1b5"/><path d="m1317.5 1263.4c-.5 0-1-.1-1.5-.5-1.2-.8-1.5-2.5-.7-3.7l130.2-192.2h235.8c1.5 0 2.7 1.2 2.7 2.7s-1.2 2.7-2.7 2.7h-233l-128.6 189.8c-.5.8-1.3 1.2-2.2 1.2z" fill="#3fb1b5"/><path d="m1449.1 1232.4-15-6.8.8-2.3c.3-.9 7.6-22.1 25.6-44.6 16.7-20.9 46-46.6 91.1-51l2.6-.2 2.6 18.9-5.3.7-1.9-13.8c-41.8 4.8-69.2 29-84.9 48.7-14.1 17.6-21.5 34.8-23.8 40.8l10.5 4.8z" fill="#fff"/><path d="m1525.1 1378.2-30.3-99 70.9-34.7 29.2 22.2 50.2 38.1 15.2 151.4z" fill="#e57281"/><path d="m1594.9 1266.7-54.1 120.6-15.7-9.1-30.3-99 70.9-34.7z" fill="#9a3b82"/><path d="m1534.8 1285.7c-5.1.5-15.4-4.7-27.1-12.1l-13.7 11.1c-7.9 6.4-19.5 5.3-25.9-2.6-2.8-3.4-4.2-7.6-4.2-11.7 0-5.3 2.3-10.6 6.8-14.3l5.6-4.6c-14.7-11-26.2-20.5-26.2-20.5s25.5-76.6 107-84.4c0 0 43.2 89.3 46.1 97.8 2.9 8.6-39.6 38.4-68.4 41.3z" fill="#e57281"/><path d="m1476.3 1251.5c-14.7-11-26.2-20.5-26.2-20.5s9.4-28.3 35.2-52.3c-27 26.9 13.3 56.9-9 72.8z" fill="#ffcf2d"/><path d="m1490.5 1199.9s4.3-11.6 15.2-17.6" fill="none" stroke="#9a3b82" stroke-linecap="round" stroke-miterlimit="10" stroke-width="4"/><path d="m1568.5 1170.5s-15.1-2.1-22.6 2.5-7.5 28.4 4.5 43.3" fill="none" stroke="#9a3b82" stroke-linecap="round" stroke-miterlimit="10" stroke-width="4"/><path d="m1557.6 1231.2s-9.3 8.3-25.1 2.2" fill="none" stroke="#9a3b82" stroke-linecap="round" stroke-miterlimit="10" stroke-width="4"/><path d="m1534 1229s-3.3 4.7-3.1 10" fill="none" stroke="#9a3b82" stroke-linecap="round" stroke-miterlimit="10" stroke-width="4"/><ellipse cx="1512.9" cy="1209.2" fill="#9a3b82" rx="3" ry="5.9" transform="matrix(.9658 -.2593 .2593 .9658 -261.7921 433.6165)"/><ellipse cx="1557.7" cy="1190" fill="#9a3b82" rx="2.7" ry="5.5" transform="matrix(.9658 -.2593 .2593 .9658 -255.2721 444.5919)"/><path d="m1512.9 1279.6-23.1-18c-2.6-2-6.2-1.8-8.6.4l-1.4 1.3c-2.7 2.6-2.7 6.8 0 9.4" fill="none" stroke="#9a3b82" stroke-linecap="round" stroke-miterlimit="10" stroke-width="4"/></svg>