<svg enable-background="new 0 0 5000 3500" viewBox="0 0 5000 3500" xmlns="http://www.w3.org/2000/svg"><path d="m4042.9 2605v329.9h-496.3l96.7-506.6c-3.1 20 58.8 57.5 143.5 95.1 30.4 13.5 64.3 26.9 100.5 39.6 58.4 20.6 112.2 34.6 155.6 42-.1 0 0 0 0 0z" fill="#9a3b82"/><path d="m4042.9 2505.8v88.3c-43.4-7.4-97.1-21.3-155.7-41.9-138.1-48.5-244.4-108.4-238.4-135.3.1-.4.2-.8.3-1.1 9.3-26.3 131.6-8.1 271.6 41 45 15.8 85.6 32.1 119.7 47.8.8.4 1.6.8 2.5 1.2z" fill="#ffcf2d"/><g stroke="#ffcf2d"><path d="m3974.8 1741.4c-48.4 0-87.6 39.2-87.6 87.5v239.8c0 48.3-39.2 87.5-87.5 87.5h-350.8c48.4 0 87.5-39.2 87.5-87.5v-239.8c0-48.4 39.2-87.5 87.5-87.5z" fill="#fff" stroke-miterlimit="10" stroke-width="5"/><path d="m3598 1865.5h223.4v207.3h-223.4z" fill="#fff" stroke-miterlimit="10" stroke-width="5"/><path d="m3821.3 1895.1h-223.3" fill="none" stroke-miterlimit="10" stroke-width="5"/><path d="m3821.3 1924.7h-223.3" fill="none" stroke-miterlimit="10" stroke-width="5"/><path d="m3821.3 1954.4h-223.3" fill="none" stroke-miterlimit="10" stroke-width="5"/><path d="m3821.3 1984h-223.3" fill="none" stroke-miterlimit="10" stroke-width="5"/><path d="m3821.3 2013.7h-223.3" fill="none" stroke-miterlimit="10" stroke-width="5"/><path d="m3821.3 2043.3h-223.3" fill="none" stroke-miterlimit="10" stroke-width="5"/><path d="m3887.2 1828.9c0-48.1 38.8-87.1 86.7-87.5 48 .4 86.7 39.4 86.7 87.5z" fill="#66b0f0" stroke-miterlimit="10" stroke-width="5"/></g><path d="m3800.1 2158.4c-.1 0-.3 0-.4 0h-349.5c-.2 0-.4 0-.6 0-35.9-.5-66.6-22.7-79.6-54.1h350.2c13.1 31.4 43.8 53.6 79.9 54.1z" fill="#ffcf2d"/><path d="m3612.6 1841.7h-40.4v-32.4h19v18c0 .4.2.7.4.8 0 0 .1.1.1.1z" fill="#fe5244"/><path d="m3628.3 1820.5v4.3c0 .8-.1 1.6-.1 2.4 0 .2-.1.5-.1.7-.1.4-.1.8-.2 1.2-1.1 5.5-4.4 10-8.5 11.7-.3.1-.6.2-.9.3-.5.2-1.1.3-1.6.4-.2 0-.4.1-.6.1l-22.9-14.9c.2-3.5 2.4-6.3 5-6.3h29.9z" fill="#fe5244"/><path d="m3851.4 1809.3v32.4h-40.4l20.8-13.5s.1-.1.1-.1c.1-.1.1-.1.2-.1 0-.1.1-.1.1-.2 0 0 0-.1.1-.1 0-.1 0-.1.1-.1s0 0 0-.1 0-.1 0-.2v-18z" fill="#fe5244"/><path d="m3830.4 1826.8-22.9 14.9c-.6-.1-1.2-.2-1.8-.3-.2-.1-.4-.1-.6-.2-.3-.1-.5-.2-.8-.3-.2-.1-.5-.2-.7-.3-3.1-1.7-5.7-5-7-9.1-.2-.6-.4-1.2-.5-1.8-.1-.2-.1-.5-.2-.8-.2-1.3-.4-2.6-.4-4v-4.3h30c2.5-.1 4.7 2.7 4.9 6.2z" fill="#fe5244"/><path d="m3830.4 1792.9v28.2c-.2-.2-.4-.5-.6-.7-.4-.4-.8-.7-1.2-1-1-.6-2.1-1-3.2-1h-227.1c-1.2 0-2.3.4-3.2 1-.4.3-.8.6-1.2 1-.2.2-.4.4-.6.7v-28.2c0-3.8 2.2-6.8 5-6.8h227.1c2.7 0 5 3.1 5 6.8z" fill="#fe5244"/><path d="m4042.9 2202.1v392h-.1c-43.4-7.4-97.1-21.3-155.7-41.9-36.2-12.7-70.1-26.2-100.5-39.6l16.3-91 27.7-154.5c-86.9-27.2-101-110.8-101-110.8h69.9c48.4 0 87.5-39.2 87.5-87.5v-28.8h-44.9c-31.5 0-57.1-31-57.1-62.5v-10.2h99.8c18.5 0 35.9 8.7 47 23.5l73 97.5c24.8 32.8 38.1 72.7 38.1 113.8z" fill="#a0505a"/><path d="m4042.9 2505.8v88.3h-.1c-43.4-7.4-97.1-21.3-155.7-41.9-36.2-12.7-70.1-26.2-100.5-39.6l16.3-91c36 8.8 76 20.7 117.6 35.3 45 15.8 85.6 32.1 119.6 47.8 1.1.3 1.9.7 2.8 1.1z" fill="#73325a"/><path d="m3891.6 2040h-48.2c-31.5 0-57.1-31-57.1-62.5v-10.2h105.3z" fill="#a0505a"/><path d="m3861.3 2137.4s69.5 26.1 75.8 115.8" fill="none" stroke="#73325a" stroke-miterlimit="10" stroke-width="5"/><path d="m3830.8 2269.2h47.3" fill="none" stroke="#73325a" stroke-miterlimit="10" stroke-width="5"/><path d="m3786.7 1148 31.7-21c41.3-27.3 96.6-.3 100.5 49l6.9 87.3c3.8 47.9 56.5 75.2 97.8 50.7l20-11.9" fill="none" stroke="#ffcf2d" stroke-miterlimit="10" stroke-width="6"/><path d="m3326 823.7 407.3 236.4 205.1 460.5-235.3-158.5-255.7-299.6z" fill="#9a3b82"/><path d="m3327.1 807.8 415.9 241.5 209.5 470.2" fill="none" stroke="#ffcf2d" stroke-miterlimit="10" stroke-width="6"/><ellipse cx="3568.8" cy="1218.2" fill="#fff" rx="45.1" ry="201.5" transform="matrix(.7641 -.6451 .6451 .7641 56.0791 2589.7109)"/><ellipse cx="3559.8" cy="1226.1" fill="#fff" rx="44.2" ry="197.6" stroke="#ffcf2d" stroke-miterlimit="10" stroke-width="5" transform="matrix(.7641 -.6451 .6451 .7641 48.8094 2585.7637)"/><path d="m3736.9 1339.9-38.8 32.7c7.2-6.1 5.6-21.5-3.1-43-14.3-35.4-47.8-87.1-92.4-140.1-44.7-52.9-90.1-94.6-122.6-114.6-19.7-12.2-34.7-16.4-41.9-10.3l38.8-32.7c19-16.1 96 36.5 167.8 121.6s111.3 170.4 92.2 186.4z" fill="#ffcf2d"/><path d="m4151.4 1214.8c11-5.3 21.7-10 32-13.9 6.1 6.4 11.4 13.9 15.5 22.3s6.7 17.2 7.9 25.9c-9.5 5.6-19.8 11.2-30.7 16.5-54.7 26.5-104.5 36.6-111.3 22.6-6.9-14.1 31.9-46.9 86.6-73.4z" fill="#ffcf2d"/><circle cx="4054.8" cy="1295.1" fill="none" r="12.1" stroke="#9a3b82" stroke-miterlimit="10" stroke-width="6"/><path d="m3340.7 2511.5v423.4h-482.3l61.8-459.8c0 18.6 94.1 41.8 210.2 51.8 116.1 10.1 210.3 3.2 210.3-15.4z" fill="#66b0f0"/><path d="m3338.5 2500.6c0 18.6-93.3 25.5-208.3 15.4s-208.3-33.3-208.3-51.8c0-18.6 93.3-25.5 208.3-15.4 115.1 10 208.3 33.2 208.3 51.8z" fill="#3fb1b5"/><path d="m3405.4 1562 29.2 18.9c29.2 22.6-11.2 123.6-90.2 225.4-79 101.9-166.7 166.1-195.9 143.5l-14.4-13.6" fill="none" stroke="#66b0f0" stroke-miterlimit="10" stroke-width="6"/><path d="m2999.9 2036.4 331.5-303.4 115.9-352.9-353.8 321.5z" fill="#66b0f0"/><path d="m2983 2073.2 360.8-330.2 117.7-358.5" fill="none" stroke="#fe5244" stroke-linecap="round" stroke-miterlimit="10" stroke-width="6"/><path d="m3173.8 1732-314.8 301.1c-15.3 14.6-40.3.8-36-20l8.8-42.7c4-19.3-17.9-33.4-33.8-21.8l-104 75.7" fill="none" stroke="#fe5244" stroke-miterlimit="10" stroke-width="6"/><path d="m2609.3 2132.1c-9.3 7.8-18.6 15-27.6 21.3-7.5-4.7-14.4-10.6-20.5-17.8-6-7.2-10.7-15-14-23.2 7.8-7.8 16.4-15.7 25.7-23.6 46.5-39.1 92.3-61.2 102.4-49.2 10 12-19.5 53.4-66 92.5z" fill="#ffcf2d"/><circle cx="2684.3" cy="2031.6" fill="none" r="12.1" stroke="#fe5244" stroke-miterlimit="10" stroke-width="6"/><path d="m3188.7 2192.8v327c-18.5-.8-38.2-2-58.5-3.8-74.9-6.5-140.5-18.7-177.2-31.5l5.5-36.2 18.4-121.5h-23.8c-33.9 0-61.3-27.4-61.3-61.3v-120.4c0-23.8 8.6-46.7 24.3-64.6l78.3-89.5c5.1-5.8 14.7-2.2 14.7 5.5v121.7c0 14.6-5.2 28.7-14.7 39.8l-7 8.2h85c12.3 0 19.5-13.7 12.6-23.9-10.5-15.3-24.3-37.1-37.4-62.3-26.1-49.9 19.2-77.8 19.2-77.8l103.7 134.5c11.8 16.3 18.2 36 18.2 56.1z" fill="#ffcf2d"/><path d="m3009.1 1990v128.2c0 14.6-5.2 28.7-14.7 39.8l-7 8.2" fill="none" stroke="#fff" stroke-linecap="round" stroke-miterlimit="10" stroke-width="5"/><path d="m2987.4 2166.1-56.2 63.1" fill="none" stroke="#fff" stroke-linecap="round" stroke-miterlimit="10" stroke-width="5"/><path d="m3009.1 2062.5c0 14.6-5.2 28.7-14.7 39.8l-7 8.2-56.1 63" fill="none" stroke="#fff" stroke-linecap="round" stroke-miterlimit="10" stroke-width="5"/><path d="m3009.1 2006.9c0 14.6-5.2 28.7-14.7 39.8l-7 8.2-56.1 63" fill="none" stroke="#fff" stroke-linecap="round" stroke-miterlimit="10" stroke-width="5"/><path d="m2976.9 2330.1h43.1" fill="none" stroke="#fff" stroke-linecap="round" stroke-miterlimit="10" stroke-width="5"/><path d="m3188.7 2455.2v64.6c-18.5-.8-38.2-2-58.5-3.8-74.9-6.5-140.5-18.7-177.2-31.5l5.5-36.2c37.6-5.5 100.5-5.8 171.8.4 20.2 1.9 39.8 4 58.4 6.5z" fill="#fe5244"/><path d="m2704.7 2934.9h-557.7v-552.9c0 23.6 91.7 42.7 204.9 42.7s204.9-19.1 204.9-42.7v-.1z" fill="#3fb1b5"/><path d="m2555.3 2371c0 23.7-90.7 42.8-202.7 42.8s-202.7-19.1-202.7-42.7v-.1c.3-23.5 90.9-42.6 202.7-42.6s202.5 19.1 202.7 42.6z" fill="#66b0f0"/><path d="m2555.3 2371.4c-.7 23.4-91.2 42.4-202.7 42.4-21.5 0-42.1-.7-61.5-2v-205.7h-105.8c-13.5 0-24.4-10.9-24.4-24.4v-16.5c0-7.4 3.3-14 8.5-18.5-5.2-4.5-8.5-11.1-8.5-18.5v-16.5c0-6.5 2.6-12.5 6.8-16.8-4.2-4.4-6.8-10.3-6.8-16.8v-16.5c0-6.7 2.7-12.8 7.1-17.3-4.4-4.4-7.1-10.5-7.1-17.2v-29.9c0-13.5 10.9-24.4 24.4-24.4h135.1c4.5-2.6 11.8-11.8-.6-17.2l-29-6.8c-23-11.5-37.6-30.6-37.6-56.4h102c17.1 0 32.4 10.8 38.2 26.9l159.4 445z" fill="#e57281"/><path d="m2555.8 2371.6c-.3-.3-.5-.5-.5-.5 0 23.6-90.7 42.7-202.7 42.7-21.5 0-42.1-.7-61.5-2v-81.3c19.4-1.3 40.1-2 61.5-2 101 0 184.8 15.6 200.2 35.9.4.5 1.5 3.2 3 7.2z" fill="#9a3b82"/><path d="m2322.7 1694.8v81.1c0 44.1-35.7 79.8-79.8 79.8s-79.8-35.7-79.8-79.8v-81.1c0 19.8 35.7 35.8 79.8 35.8s79.8-16 79.8-35.8z" fill="#fff"/><ellipse cx="2242.9" cy="1694.8" fill="#ffcf2d" rx="79.8" ry="35.8"/><path d="m2322.7 1556.2v219.6c0 29.6-16.1 55.4-40 69.2 0 0 0 0-.1 0-11.7 6.7-25.3 10.6-39.7 10.6s-27.9-3.8-39.6-10.5c-.1 0-.1-.1-.2-.1-23.9-13.8-40-39.6-40-69.2v-219.6z" fill="none" stroke="#ffcf2d" stroke-miterlimit="10" stroke-width="6"/><ellipse cx="2242.9" cy="1556.2" fill="#fff" rx="80.7" ry="35.8" stroke="#ffcf2d" stroke-miterlimit="10" stroke-width="5"/><circle cx="2242.9" cy="1549.8" fill="#ffcf2d" r="11.8"/><circle cx="2216.9" cy="1792.2" fill="#fff" r="10.4" stroke="#ffcf2d" stroke-miterlimit="10" stroke-width="5"/><circle cx="2279.3" cy="1694.8" fill="#fff" r="8.6"/><circle cx="2196.1" cy="1759.3" fill="#ffcf2d" r="8.6"/><path d="m2319.6 2262.1h-153.4c-2.8 0-3.6-3.7-1.2-5l53.6-20.3c8.4-3.2 14-11.3 14-20.3v-319.6c0-21.2-11-41.1-29.3-51.8 11.7 6.7 25.2 10.5 39.6 10.5 14.5 0 28-3.9 39.7-10.6-18.4 10.6-29.4 30.6-29.4 51.8v319.6c0 9 5.6 17.1 14 20.3l53.6 20.3c2.4 1.4 1.6 5.1-1.2 5.1z" fill="#fff" stroke="#ffcf2d" stroke-miterlimit="10" stroke-width="5"/><circle cx="2186.1" cy="1422.5" fill="#ffcf2d" r="13.6"/><circle cx="2279.3" cy="1446.2" fill="#fff" r="11.8" stroke="#ffcf2d" stroke-miterlimit="10" stroke-width="5"/><circle cx="2221.5" cy="1495.4" fill="#fff" r="8.6" stroke="#ffcf2d" stroke-miterlimit="10" stroke-width="5"/><circle cx="2217" cy="1392.2" fill="#ffcf2d" r="7.1"/><path d="m2345.7 2004.9v201.3h-160.4c-13.5 0-24.4-10.9-24.4-24.4v-16.5c0-7.4 3.3-14 8.5-18.5-5.2-4.5-8.5-11.1-8.5-18.5v-16.5c0-6.5 2.6-12.5 6.8-16.8-4.2-4.4-6.8-10.3-6.8-16.8v-16.5c0-6.7 2.7-12.8 7.1-17.3-4.4-4.4-7.1-10.5-7.1-17.2v-22.2h184.8z" fill="#e57281"/><path d="m2163.7 2126.9c0 15.3 12.4 27.7 27.7 27.7h129.8c15.3 0 27.7-12.4 27.7-27.7" fill="none" stroke="#9a3b82" stroke-linecap="round" stroke-miterlimit="10" stroke-width="5"/><path d="m2163.7 2077c0 15.3 12.4 27.7 27.7 27.7h129.8c15.3 0 27.7-12.4 27.7-27.7" fill="none" stroke="#9a3b82" stroke-linecap="round" stroke-miterlimit="10" stroke-width="5"/><path d="m2163.7 2027.1c0 15.3 12.4 27.7 27.7 27.7h129.8c15.3 0 27.7-12.4 27.7-27.7" fill="none" stroke="#9a3b82" stroke-linecap="round" stroke-miterlimit="10" stroke-width="5"/><path d="m2190.1 2204.5h131.1c15.3 0 27.7-12.4 27.7-27.7v-187.1" fill="none" stroke="#9a3b82" stroke-linecap="round" stroke-miterlimit="10" stroke-width="5"/><path d="m2226.3 1988.9h-13.3c-4.4 0-8 3.6-8 8 0 4.4 3.6 8 8 8h74.4c8 0 14.6-6.5 14.6-14.6 0-9.6 7.8-17.4 17.4-17.4h12.1c9.6 0 17.4 7.8 17.4 17.4v32.4" fill="none" stroke="#9a3b82" stroke-linecap="round" stroke-miterlimit="10" stroke-width="5"/><path d="m3134.3 958.3-332.9 341.4-383.8-423.1 418.9-294.8z" fill="#3fb1b5"/><path d="m2788.4 1316.1-402.7-441.4 441.6-309.6" fill="none" stroke="#ffcf2d" stroke-miterlimit="10" stroke-width="6"/><path d="m2794.9 940.7 25.1-3.7c41.3-6.1 79.6 22.5 85.7 63.7l21.9 149.2c7.4 50.3 61.4 79.1 107.3 57.1l104.7-50.1" fill="none" stroke="#ffcf2d" stroke-miterlimit="10" stroke-width="6"/><path d="m3273.1 1185.5c10.7 5.8 20.8 11.8 30 17.8-1.6 8.7-4.6 17.3-9 25.6-4.4 8.2-10 15.5-16.4 21.6-10.1-4.4-20.7-9.5-31.4-15.3-53.5-28.9-90.8-63.4-83.4-77.1s56.7-1.5 110.2 27.4z" fill="#ffcf2d"/><circle cx="3151.5" cy="1154.1" fill="none" r="12.1" stroke="#66b0f0" stroke-miterlimit="10" stroke-width="6"/><path d="m1961.7 2560.3v374.6h-432.9v-220.7c9.4 24.6 119.6 8.9 237.2-36.1 105.8-40.5 187.5-90.3 195.7-117.8z" fill="#fe5244"/><path d="m1961.7 2549.4c-8.3 27.5-89.9 77.3-195.8 117.8-117.5 45-227.7 60.7-237.2 36.1s85.5-80.3 203.1-125.3c117.5-45 220.5-61.5 229.9-36.9 1 2.5 1 5.3 0 8.3z" fill="#66b0f0"/><path d="m1870 2301v317.4l-23.9 12.1c-24.2 11.8-51.3 23.5-80.1 34.5-52.9 20.3-104.4 34.6-145.8 42l23.8-93.5 38.8-152.6c-18.4 0-35.8-8.2-47.5-22.4l-159.3-181.2c27.3-24.9 68.1 9 68.1 9l-15.3-78.1c-3.6-18.5 1.8-37.7 14.5-51.6l48.4-53.1c9.6-10.5 26.9-6.4 30.9 7.2l34.4 118.7s85.4 65.2 101.4 65.2c18.1 0 24.4-14.7-9.4-63-25.4-36.3 0-62.8 0-62.8l82.7 69.6c24.3 20.6 38.3 50.8 38.3 82.6z" fill="#fff" stroke="#ffcf2d" stroke-miterlimit="10" stroke-width="5"/><path d="m1687.7 2282.5-60.5-48.4-33.1-114.2c-3.8-13.1-19.9-17-29.1-6.9" fill="none" stroke="#ffcf2d" stroke-miterlimit="10" stroke-width="5"/><path d="m1648.1 2303.8-52.6-42.8-31.3-108.1c-3.6-12.4-19.4-16.1-28.1-6.5" fill="none" stroke="#ffcf2d" stroke-miterlimit="10" stroke-width="5"/><path d="m1601.6 2314.7-57.6-48.3" fill="none" stroke="#ffcf2d" stroke-miterlimit="10" stroke-width="5"/><path d="m1682.8 2460.9h67.3" fill="none" stroke="#ffcf2d" stroke-miterlimit="10" stroke-width="5"/><path d="m1870 2536.6v83.9c-29.8 15.8-65.3 31.8-104 46.7-53 20.3-104.5 34.6-146 42l24-93.6c26.6-12.8 56.4-25.6 87.9-37.6 50.9-19.4 99.1-33.6 138.1-41.4z" fill="#ffcf2d"/><path d="m1802.2 1480 30.4 66.7c2.9 24.7-14.7 47-39.4 50-24.7 2.9-42.3 25.3-39.4 50l4.4 37" fill="none" stroke="#ffcf2d" stroke-miterlimit="10" stroke-width="6"/><path d="m2154 1265.7 160.2-250-551-4.4-180.5 480.6 298-14z" fill="#fe5244"/><path d="m2320.8 996.9-576.1-6.5-191.3 504.4" fill="none" stroke="#ffcf2d" stroke-miterlimit="10" stroke-width="6"/><path d="m2144.1 1228.2c32 54.9-22.4 146.3-121.6 204.1s-205.5 60.1-237.5 5.2c-4.4-7.5-7.1-15.6-8.4-24.3-8-54.9 44.3-129.9 130-179.8s176.7-58.5 220.5-24.5c6.9 5.4 12.6 11.8 17 19.3z" fill="#66b0f0" stroke="#fff" stroke-miterlimit="10" stroke-width="6"/><path d="m2118.7 1184.6 25.4 43.6c-4.4-7.5-10.1-13.9-17-19.3-43.8-34-134.8-25.4-220.5 24.5s-137.9 124.9-130 179.8c1.2 8.7 4 16.8 8.4 24.3l-25.4-43.6c-32-54.9 22.4-146.3 121.6-204.1 99.1-57.7 205.5-60.1 237.5-5.2z" fill="none" stroke="#fff" stroke-linecap="round" stroke-miterlimit="10" stroke-width="5"/><path d="m1749.6 1818.5c-3.9 11.5-8.1 22.5-12.5 32.6-8.9-.1-17.9-1.6-26.7-4.6-8.9-3-16.9-7.2-24.1-12.5 2.6-10.7 5.8-22 9.7-33.5 19.4-57.6 47-100.2 61.8-95.3 14.8 5 11.1 55.7-8.2 113.3z" fill="#ffcf2d"/><circle cx="1759.8" cy="1693.3" fill="none" r="12.1" stroke="#66b0f0" stroke-miterlimit="10" stroke-width="6"/><path d="m1243.5 2525.6v409.3h-449.6v-602.4c8.8 29.5 102.9 91 219.7 142.4 124.3 54.9 227.3 77.5 229.9 50.7z" fill="#66b0f0"/><path d="m1243.5 2514.7c-2.7 26.8-105.6 4.1-229.9-50.7-116.8-51.5-210.9-113-219.7-142.4-.6-1.9-.8-3.7-.6-5.3 2.6-26.8 105.6-4.1 229.9 50.7s223 120.9 220.3 147.7z" fill="#9a3b82"/><path d="m977.4 1927.6c10.7-22 33-36 57.5-36h70.7l3.7 284.2 49.3 261.2 15.7 83c-41.6-9.2-98.4-28.5-160.6-55.9-35.2-15.5-79.3-38.5-108.7-54.7v-345.8c0-4.7.9-9.4 2.5-13.8z" fill="#a0505a"/><path d="m1174.2 2520c-41.6-9.2-98.4-28.5-160.6-55.9-35.2-15.5-79.3-38.5-108.7-54.7v-86.9c32.1 10.3 79.6 27.5 118.3 44.5 52.2 23 97.8 46.7 135.4 70z" fill="#73325a"/><path d="m1437.5 1572.1-376.1 692c-13.9 25.6-52.2 31.7-85.5 13.6s-49-53.5-35.1-79.2l376.1-692z" fill="#fff" stroke="#ffcf2d" stroke-miterlimit="10" stroke-width="5"/><ellipse cx="1377.2" cy="1539.5" fill="#66b0f0" rx="52.8" ry="68.6" stroke="#ffcf2d" stroke-miterlimit="10" stroke-width="5" transform="matrix(.4775 -.8786 .8786 .4775 -633.0601 2014.4091)"/><path d="m1191.8 1837 177.7-145.1-2.8 51.6 56.9 14.2-129.6 80c34.8-6 76.7-10.9 111.2-8.2 41.1 3.2 27.3 51.3 11.9 92.4 36-3.5 156.7-76.6 202.2-62.8 27.8 8.4 17.8 65.1 9.8 96.4 11.6.6 70.3-.1 70.3-.1l-31 28.3 17 28.3c-66 2.9-66.8-7.5-58.5-54.3 1.4-50.9-55-2-175.1 26.7-59.5 14.2-51.8-24.5-37.1-64.8-5.9-18.5-50-38.6-191.7-1.6z" fill="#fe5244"/><circle cx="1194.4" cy="1872.9" fill="#fff" r="52.5" stroke="#fe5244" stroke-miterlimit="10" stroke-width="5"/><path d="m1176.3 1891.6v3.3c0 33.6-27.2 60.9-60.9 60.9h-63.9v-64.2z" fill="#a0505a"/><path d="m1254.1 2014.9-16.9 39.6-19.7 46.3-10.7 25.1-16.3 38.3c-.4 1-1 2.1-1.5 3 0 .1-.1.1-.1.2-5.2 9-15.3 14.6-26.4 14.6h-129.5c-15.7 0-26.4-14.9-20.6-28.6l9.4-22.1 20.7-48.6 17.8-41.9 15.7-36.8c4.6-10.8 15.7-17.9 28.1-17.9h129.5c15.6.2 26.3 15.1 20.5 28.8z" fill="#a0505a"/><path d="m1065.7 2041c5.4-6 13.2-9.6 21.6-9.6h123.7c13 0 22.4 11.2 21.1 23.1" fill="none" stroke="#73325a" stroke-linecap="round" stroke-miterlimit="10" stroke-width="5"/><path d="m1048.9 2082.9c5.3-5.3 12.6-8.4 20.5-8.4h123.7c14.2 0 24 13.2 20.4 26.2" fill="none" stroke="#73325a" stroke-linecap="round" stroke-miterlimit="10" stroke-width="5"/><path d="m1029.5 2131.4c5.3-5 12.4-7.9 20-7.9h123.7c14.6 0 24.7 14.2 20 27.6" fill="none" stroke="#73325a" stroke-linecap="round" stroke-miterlimit="10" stroke-width="5"/><path d="m1476.8 851.8c8.3-8.9 16.6-17.2 24.8-24.6 8 3.7 15.6 8.8 22.5 15.2 6.8 6.4 12.5 13.6 16.8 21.3-6.8 8.7-14.4 17.6-22.7 26.5-41.4 44.5-84.1 72-95.6 61.4-11.4-10.6 12.8-55.3 54.2-99.8z" fill="#ffcf2d"/><path d="m1186.2 1204.2-13.2 8.2c-47.9 29.7-141.2-34.2-208.3-142.7-67.2-108.5-82.8-220.4-35-250.1l13.6-8.4 80.9 238z" fill="#66b0f0"/><path d="m1320.2 1332.5-134-128.3-162.1-155.1-80.9-237.9-72.3-212.7 336.7 271.3z" fill="#66b0f0" stroke="#fff" stroke-miterlimit="10" stroke-width="6"/><path d="m1330.7 1319.8-111.8-461.9-340.9-268.5" fill="none" stroke="#9a3b82" stroke-miterlimit="10" stroke-width="6"/><path d="m1142.3 1005.4c-8.6-35.6 13.3-71.5 48.9-80.1 33.8-8.2 68.1 11.1 78.7 44.1l28.1 90.7c15.5 50.2 87.8 46.3 97.9-5.3l16.2-83.3" fill="none" stroke="#ffcf2d" stroke-miterlimit="10" stroke-width="6"/><circle cx="1415.9" cy="961.7" fill="none" r="12.1" stroke="#66b0f0" stroke-miterlimit="10" stroke-width="6"/></svg>